<?xml version="1.0" encoding="UTF-8"?>
<svg width="80px" height="80px" viewBox="0 0 80 80" version="1.1" xmlns="http://www.w3.org/2000/svg" xmlns:xlink="http://www.w3.org/1999/xlink">
    <!-- Generator: Sketch 55.1 (78136) - https://sketchapp.com -->
    <title>лого</title>
    <desc>Created with Sketch.</desc>
    <defs>
        <linearGradient x1="-52.5108649%" y1="48.502064%" x2="48.044155%" y2="-52.2558596%" id="linearGradient-1">
            <stop stop-color="#201B4F" offset="0%"></stop>
            <stop stop-color="#4377BB" offset="100%"></stop>
        </linearGradient>
    </defs>
    <g id="Symbols" stroke="none" stroke-width="1" fill="none" fill-rule="evenodd">
        <g id="blocks/-1920/-header-eng-" transform="translate(0.000000, -1.000000)">
            <g id="Group-5-Copy">
                <g id="лого" transform="translate(0.000000, 1.000000)">
                    <g id="Group">
                        <polygon id="Fill-1143" fill="url(#linearGradient-1)" points="0.221313869 79.6391241 79.5141606 79.6391241 79.5141606 0.186277372 0.221313869 0.186277372"></polygon>
                        <polygon id="Fill-1145" fill="#FFFFFF" points="10.3813723 34.2091095 12.2908613 34.2091095 12.2908613 46.0485255 10.3813723 46.0485255 10.3813723 51.5294015 22.734073 51.5294015 22.734073 46.0485255 20.8204964 46.0485255 20.8204964 34.2091095 22.734073 34.2091095 22.734073 28.7305693 10.3813723 28.7305693"></polygon>
                        <g id="Group-1150" transform="translate(25.109489, 28.548905)" fill="#FFFFFF">
                            <path d="M9.8630073,8.94160584 L9.8630073,5.66043796 L13.1576058,5.66043796 C14.0317664,5.66043796 14.765781,6.41547445 14.765781,7.29430657 C14.765781,8.1649635 14.006073,8.94160584 13.1313285,8.94160584 L9.8630073,8.94160584 Z M13.2749781,17.5372263 L9.8630073,17.5372263 L9.8630073,14.1223358 L13.2849051,14.1223358 C14.2635912,14.1223358 14.9952701,14.9567883 14.9952701,15.8274453 C14.9952701,16.7016058 14.3138102,17.5372263 13.2749781,17.5372263 L13.2749781,17.5372263 Z M19.4338102,11.1290511 C19.8705985,11.0011679 22.5176058,9.70306569 22.5176058,5.88116788 C22.5176058,2.93226277 20.2279708,0.181313869 16.2752701,0.181313869 L0.116437956,0.181313869 L0.116437956,5.66043796 L2.02767883,5.66043796 L2.02767883,17.499854 L0.116437956,17.499854 L0.116437956,22.9807299 L7.696,22.9807299 L17.4028613,22.9807299 C20.3395036,22.9807299 23.2814015,20.2554745 23.2814015,16.5772263 C23.2814015,14.0878832 21.7473869,12.1182482 19.4303066,11.209635 L19.4338102,11.1290511 Z" id="Fill-1146"></path>
                            <path d="M33.5323212,8.94160584 C32.5810803,8.94160584 31.8978686,8.0989781 31.8978686,7.29430657 C31.8978686,6.39094891 32.643562,5.66043796 33.5323212,5.66043796 L36.8006423,5.66043796 L36.8006423,7.26218978 L43.823708,7.26218978 C43.8260438,7.25927007 43.8277956,7.25751825 43.8301314,7.25518248 L43.8301314,0.181313869 L32.0748029,0.181313869 C27.6502774,0.181313869 24.1851679,2.80262774 24.1851679,7.26452555 C24.1851679,11.1442336 27.3378686,14.1054015 31.2292555,14.1054015 L35.8797664,14.1054015 C36.8660438,14.1054015 37.5901314,14.9515328 37.5901314,15.8274453 C37.5901314,16.6981022 36.8491095,17.5378102 35.8797664,17.5378102 L32.4578686,17.5378102 L32.4578686,15.8870073 L25.3664818,15.8870073 L25.3664818,22.9807299 L37.8978686,22.9807299 L38.2675036,22.9859854 C42.184,22.9859854 45.3676496,19.8035036 45.3676496,15.8846715 C45.3676496,11.9722628 42.1670657,8.94160584 38.2470657,8.94160584 L33.5323212,8.94160584 Z" id="Fill-1148"></path>
                        </g>
                    </g>
                </g>
            </g>
        </g>
    </g>
</svg>