<?xml version="1.0" encoding="UTF-8"?>
<svg width="80px" height="80px" viewBox="0 0 80 80" version="1.1" xmlns="http://www.w3.org/2000/svg" xmlns:xlink="http://www.w3.org/1999/xlink">
    <!-- Generator: Sketch 55.1 (78136) - https://sketchapp.com -->
    <title>Group 5</title>
    <desc>Created with Sketch.</desc>
    <g id="Главная-страница" stroke="none" stroke-width="1" fill="none" fill-rule="evenodd">
        <g id="main_02-copy" fill="#FFFFFF">
            <g id="Group-7" transform="translate(0.000000, -1.000000)">
                <g id="Group-5" transform="translate(0.000000, 1.000000)">
                    <g id="Group">
                        <path d="M39.5849778,35.7376089 C39.5849778,34.9970503 38.9747556,34.370905 38.2516444,34.370905 L35.2440889,34.370905 L35.2440889,37.1172737 L38.2263111,37.1172737 C38.9374222,37.1172737 39.5849778,36.4598436 39.5849778,35.7376089" id="Fill-1293"></path>
                        <path d="M38.3785778,42.8250279 L35.2439111,42.8250279 L35.2439111,45.7050279 L38.3683556,45.7050279 C39.2728,45.7050279 39.8128,44.9716201 39.8128,44.2623464 C39.8128,43.5682682 39.2368,42.8250279 38.3785778,42.8250279" id="Fill-1295"></path>
                        <path d="M0.433777778,79.9298324 L79.8115556,79.9298324 L79.8115556,0.116201117 L0.433777778,0.116201117 L0.433777778,79.9298324 Z M23.2973333,34.3709497 L21.396,34.3709497 L21.396,45.667486 L23.2973333,45.667486 L23.2973333,51.6741899 L10.4955556,51.6741899 L10.4955556,45.667486 L12.3924444,45.667486 L12.3924444,34.3709497 L10.4955556,34.3709497 L10.4955556,28.3660335 L23.2973333,28.3660335 L23.2973333,34.3709497 Z M42.4693333,51.6741899 L25.0315556,51.6741899 L25.0315556,45.667486 L26.9302222,45.667486 L26.9302222,34.3709497 L25.0315556,34.3709497 L25.0315556,28.3660335 L41.3493333,28.3660335 C45.5942222,28.3660335 47.8151111,31.3640223 47.8151111,34.3258101 C47.8151111,37.6424581 45.9395556,39.0931844 45.0364444,39.5986592 C47.2617778,40.6516201 48.5746667,42.6435754 48.5746667,45.0122905 C48.5746667,48.9975419 45.4177778,51.6741899 42.4693333,51.6741899 L42.4693333,51.6741899 Z M63.4097778,51.6795531 L63.0382222,51.6741899 L50.328,51.6741899 L50.328,44.0558659 L57.9026667,44.0558659 L57.9026667,45.7050279 L61.0373333,45.7050279 C61.8826667,45.7050279 62.4715556,44.9443575 62.4715556,44.2623464 C62.4715556,43.5602235 61.8955556,42.8075978 61.0373333,42.8075978 L56.4168889,42.8075978 C52.3448889,42.8075978 49.1542222,39.6889385 49.1542222,35.7081564 C49.1542222,31.316648 52.4111111,28.3660335 57.2573333,28.3660335 L69.2004444,28.3660335 L69.2004444,35.8082682 L69.0453333,35.9637989 L68.9288889,35.9713966 L61.6875556,35.9713966 L61.6875556,34.3709497 L58.7048889,34.3709497 C57.9555556,34.3709497 57.3466667,34.9841341 57.3466667,35.7376536 C57.3466667,36.3901676 57.9044444,37.1173184 58.7048889,37.1173184 L63.3888889,37.1173184 C67.504,37.1173184 70.7284444,40.2802235 70.7284444,44.3191061 C70.7284444,48.3781006 67.4448889,51.6795531 63.4097778,51.6795531 L63.4097778,51.6795531 Z" id="Fill-1297"></path>
                    </g>
                </g>
            </g>
        </g>
    </g>
</svg>